<svg width="31" height="31" viewBox="0 0 31 31" fill="none" xmlns="http://www.w3.org/2000/svg">
<g id="fi_666949" clip-path="url(#clip0_100_138)">
<g id="Group">
<g id="Group_2">
<path id="Vector" d="M29.1488 21.963L28.5495 21.3637C26.7851 19.5992 23.9138 19.5992 22.1494 21.3637C21.2867 22.2264 19.9726 22.4399 18.8805 21.8944C14.5581 19.7335 10.9867 16.1621 8.82577 11.8397C8.27973 10.7471 8.49328 9.4335 9.35652 8.57082C11.121 6.80639 11.121 3.93514 9.35652 2.17071L8.75723 1.57142C6.66314 -0.523808 3.25322 -0.523808 1.15912 1.57142C0.268687 2.46185 -0.147074 3.73123 0.0472126 4.96831C0.578526 8.34538 2.45908 15.001 9.08916 21.631C15.7192 28.2611 22.3748 30.1417 25.7519 30.673C25.9524 30.7047 26.1541 30.72 26.3546 30.72C27.3906 30.7194 28.4028 30.3071 29.1488 29.5611C31.2434 27.4664 31.2434 24.0576 29.1488 21.963ZM28.3484 28.7607C27.7134 29.3957 26.8134 29.6953 25.9286 29.5537C22.6875 29.0445 16.2942 27.2336 9.89123 20.8307C3.48829 14.4277 1.67627 8.03328 1.16705 4.79215C1.02884 3.91192 1.32508 3.00733 1.96005 2.37236C2.78648 1.54593 3.87233 1.133 4.95818 1.133C6.04403 1.133 7.12988 1.54593 7.9563 2.37236L8.55558 2.97164C9.8782 4.29426 9.8782 6.44727 8.55558 7.76989C7.34739 8.97808 7.04888 10.8173 7.81243 12.3467C10.0827 16.8872 13.8336 20.6381 18.3741 22.9083C19.9023 23.6719 21.7421 23.3734 22.9509 22.1652C24.2741 20.842 26.4259 20.842 27.7491 22.1652L28.3484 22.7645C30.0013 24.4179 30.0013 27.1073 28.3484 28.7607Z" fill="#5877C8"/>
</g>
</g>
<g id="Group_3">
<g id="Group_4">
<path id="Vector_2" d="M5.4663 11.9179C2.27729 5.41187 3.13147 3.48884 3.17225 3.40501C3.33199 3.15011 3.26458 2.81195 3.01479 2.63862C2.75706 2.46076 2.40474 2.52477 2.22631 2.78193C1.98161 3.13482 0.939947 5.25894 4.44956 12.4169C4.54755 12.618 4.7492 12.7341 4.95878 12.7341C5.04205 12.7341 5.12758 12.716 5.20744 12.6758C5.48839 12.5387 5.60395 12.1989 5.4663 11.9179Z" fill="#5877C8"/>
</g>
</g>
<g id="Group_5">
<g id="Group_6">
<path id="Vector_3" d="M16.2868 11.6012C14.7252 11.6012 13.4547 12.8717 13.4547 14.4334C13.4547 15.995 14.7252 17.2655 16.2868 17.2655C17.8485 17.2655 19.119 15.995 19.119 14.4334C19.119 12.8717 17.8485 11.6012 16.2868 11.6012ZM16.2868 16.1327C15.3499 16.1327 14.5875 15.3702 14.5875 14.4334C14.5875 13.4965 15.3499 12.7341 16.2868 12.7341C17.2237 12.7341 17.9861 13.4965 17.9861 14.4334C17.9861 15.3702 17.2237 16.1327 16.2868 16.1327Z" fill="#5877C8"/>
</g>
</g>
<g id="Group_7">
<g id="Group_8">
<path id="Vector_4" d="M16.2868 9.33545C15.9736 9.33545 15.7204 9.58864 15.7204 9.90188C15.7204 10.2151 15.9736 10.4683 16.2868 10.4683C18.4727 10.4683 20.2519 12.2475 20.2519 14.4333C20.2519 14.7466 20.505 14.9998 20.8183 14.9998C21.1315 14.9998 21.3847 14.7466 21.3847 14.4333C21.3847 11.6221 19.098 9.33545 16.2868 9.33545Z" fill="#5877C8"/>
</g>
</g>
<g id="Group_9">
<g id="Group_10">
<path id="Vector_5" d="M16.2868 7.06982C15.9736 7.06982 15.7204 7.32302 15.7204 7.63626C15.7204 7.94949 15.9736 8.20269 16.2868 8.20269C19.7222 8.20269 22.5176 10.998 22.5176 14.4334C22.5176 14.7467 22.7708 14.9999 23.084 14.9999C23.3972 14.9999 23.6504 14.7467 23.6504 14.4334C23.6504 10.3733 20.347 7.06982 16.2868 7.06982Z" fill="#5877C8"/>
</g>
</g>
<g id="Group_11">
<g id="Group_12">
<path id="Vector_6" d="M16.2868 4.80408C15.9736 4.80408 15.7204 5.05727 15.7204 5.37051C15.7204 5.68375 15.9736 5.93694 16.2868 5.93694C20.9718 5.93694 24.7833 9.74846 24.7833 14.4334C24.7833 14.7467 25.0365 14.9998 25.3497 14.9998C25.663 14.9998 25.9162 14.7467 25.9162 14.4334C25.9162 9.12369 21.5966 4.80408 16.2868 4.80408Z" fill="#5877C8"/>
</g>
</g>
<g id="Group_13">
<g id="Group_14">
<path id="Vector_7" d="M16.2868 2.53833C15.9736 2.53833 15.7204 2.79153 15.7204 3.10476C15.7204 3.418 15.9736 3.67119 16.2868 3.67119C22.2213 3.67119 27.049 8.49889 27.049 14.4334C27.049 14.7466 27.3022 14.9998 27.6155 14.9998C27.9287 14.9998 28.1819 14.7466 28.1819 14.4334C28.1819 7.87468 22.8455 2.53833 16.2868 2.53833Z" fill="#5877C8"/>
</g>
</g>
</g>
<defs>
<clipPath id="clip0_100_138">
<rect width="30.72" height="30.72" fill="white"/>
</clipPath>
</defs>
</svg>
