<svg width="31" height="31" viewBox="0 0 31 31" fill="none" xmlns="http://www.w3.org/2000/svg">
<g id="fi_927667" clip-path="url(#clip0_100_126)">
<g id="Group">
<g id="Group_2">
<g id="Group_3">
<path id="Vector" d="M15.36 0C9.10253 0 4.0119 5.09063 4.0119 11.3481C4.0119 13.4081 4.93577 15.6237 4.97449 15.7171C5.27288 16.4254 5.86164 17.5255 6.2862 18.1703L14.067 29.9597C14.3854 30.443 14.8567 30.72 15.36 30.72C15.8633 30.72 16.3346 30.443 16.653 29.9603L24.4345 18.1703C24.8597 17.5255 25.4478 16.4254 25.7462 15.7171C25.7849 15.6243 26.7081 13.4088 26.7081 11.3481C26.7081 5.09063 21.6175 0 15.36 0ZM24.5153 15.1991C24.2489 15.8339 23.7009 16.8573 23.3197 17.4354L15.5382 29.2254C15.3847 29.4584 15.336 29.4584 15.1824 29.2254L7.40098 17.4354C7.01982 16.8573 6.47177 15.8333 6.20542 15.1985C6.19408 15.1711 5.34697 13.1318 5.34697 11.3481C5.34697 5.82692 9.83882 1.33507 15.36 1.33507C20.8812 1.33507 25.373 5.82692 25.373 11.3481C25.373 13.1344 24.5239 15.1791 24.5153 15.1991Z" fill="#5877C8"/>
<path id="Vector_2" d="M15.36 5.34094C12.047 5.34094 9.35217 8.03645 9.35217 11.3488C9.35217 14.6611 12.047 17.3566 15.36 17.3566C18.673 17.3566 21.3678 14.6611 21.3678 11.3488C21.3678 8.03645 18.673 5.34094 15.36 5.34094ZM15.36 16.0215C12.784 16.0215 10.6872 13.9255 10.6872 11.3488C10.6872 8.77208 12.784 6.67601 15.36 6.67601C17.936 6.67601 20.0327 8.77208 20.0327 11.3488C20.0327 13.9255 17.936 16.0215 15.36 16.0215Z" fill="#5877C8"/>
</g>
</g>
</g>
</g>
<defs>
<clipPath id="clip0_100_126">
<rect width="30.72" height="30.72" fill="white"/>
</clipPath>
</defs>
</svg>
