<svg width="31" height="31" viewBox="0 0 31 31" fill="none" xmlns="http://www.w3.org/2000/svg">
<g id="fi_2772375" clip-path="url(#clip0_100_124)">
<path id="Vector" d="M28.6782 6.89042L16.949 1.17605C15.9393 0.684215 14.781 0.683451 13.7709 1.17408L2.04588 6.86811C0.803054 7.47162 0 8.75433 0 10.136V26.7905C0 28.5125 1.40095 29.9135 3.12299 29.9135H27.597C29.3191 29.9135 30.72 28.5125 30.72 26.7905V10.1563C30.72 8.77658 29.9185 7.49469 28.6782 6.89042ZM29.5728 26.7905C29.5728 27.8799 28.6865 28.7662 27.597 28.7662H3.12299C2.03351 28.7662 1.14722 27.8799 1.14722 26.7905V12.6866L13.773 18.8181C14.7816 19.3079 15.9385 19.3079 16.9471 18.8181L26.1256 14.3607C26.4105 14.2223 26.5294 13.8791 26.391 13.5941C26.2527 13.3092 25.9097 13.1903 25.6244 13.3287L16.4459 17.7861C15.7558 18.1213 14.9643 18.1213 14.2742 17.7861L1.14722 11.4113V10.136C1.14722 9.19066 1.69667 8.31297 2.54702 7.90004L14.2721 2.206C14.9633 1.87038 15.7557 1.87089 16.4465 2.20734L28.1758 7.92171C29.0244 8.33522 29.5728 9.21233 29.5728 10.1563V26.7905ZM9.77457 20.1389C9.9986 20.3629 9.9986 20.7261 9.77457 20.9501L4.18187 26.5428C4.06983 26.6548 3.92305 26.7108 3.77627 26.7108C3.26983 26.7108 3.0082 26.0941 3.37066 25.7316L8.96336 20.1389C9.18738 19.9149 9.55054 19.9149 9.77457 20.1389ZM27.3493 25.7316C27.5734 25.9556 27.5734 26.3188 27.3493 26.5428C27.1253 26.7668 26.7622 26.7668 26.5381 26.5428L20.9454 20.9501C20.7213 20.7261 20.7213 20.3629 20.9454 20.1389C21.1695 19.9149 21.5326 19.9149 21.7566 20.1389L27.3493 25.7316Z" fill="#5877C8"/>
</g>
<defs>
<clipPath id="clip0_100_124">
<rect width="30.72" height="30.72" fill="white"/>
</clipPath>
</defs>
</svg>
